<svg xmlns="http://www.w3.org/2000/svg" width="32" height="32" enable-background="new 0 0 32 32" viewBox="0 0 32 32"><path fill="#CFD8DC" d="M10.727,3.634c2.427,5.873,8.772,6.298,8.818,10.365c-2.26,3.779-7.206,1.853-6.419,0.834
					c-1.843,0.009-3.575-1.834-2.89-2.122c-1.093-0.528-2.112-2.751-0.89-3.177c-1.093-0.926-0.778-2.77,0.111-3.001
					C8.884,5.44,10.125,3.772,10.727,3.634z"/><path fill="#ECEFF1" d="M24.547,10.646l-0.926,0.796v0.278c0,0.926,0.158,1.853,0.463,2.723c0.491,1.426,1.056,4.066-0.186,6.79
					c-1.065,2.334-3.27,3.103-5.104,3.122c-1.408,0.027-2.649,0.936-3.214,2.223c-0.722,1.649-1.463,3.27-1.463,3.27
					c-0.63,0.861-3.39,0.824-3.316-0.398c-0.871,1.019-3.622,0-2.973-1.176c-1.52,0.75-3.372-0.686-2.89-1.732
					c-1.39,0.204-2.622-2.334-1.232-3.094c3.02-0.685,10.995-1.926,10.995-1.926l3.603-6.077l1.686-5.845
					c0.231-0.787,0.954-1.333,1.778-1.333c1.028,0,1.853,0.824,1.853,1.853v0.129L24.547,10.646z"/><path fill="#FFF" d="M18.029 15.907l-3.329 5.613c0 0-7.975 1.241-10.995 1.927-.816.446-.725 1.502-.232 2.259-.027-.48.14-.931.603-1.183 2.416-.548 8.003-1.453 10.141-1.792.544-.086 1.017-.41 1.298-.884 0 0 3.335-5.129 3.335-5.94S18.029 15.907 18.029 15.907zM5.14 27.621c.038.049.077.098.121.145.013-.05.025-.101.048-.149C5.252 27.625 5.196 27.622 5.14 27.621zM8.188 29.377c.005-.009.005-.019.011-.028-.01.005-.021.008-.031.013C8.174 29.366 8.181 29.372 8.188 29.377z"/><path fill="#ECEFF1" d="M2.122,8.247 M5.688,16.62 M19.23,14.721c-1.676,6.225-9.411,5.465-8.697,3.714l0,0
					c-2.594,0.759-5.762-1.158-4.91-1.834c-1.75-0.315-4.057-3.029-2.519-4.113c0.444,0.222-0.046-0.028-0.046-0.028
					c-1.871-0.908-2.13-3.575-0.982-4.242C0.844,6.903,1.927,4.069,2.715,3.634C8.458,10.933,17.554,9.015,19.23,14.721z"/><path fill="#FFF" d="M7.013,17.064c-1.75-0.315-4.057-3.029-2.52-4.112c0.445,0.222-0.046-0.028-0.046-0.028
						c-1.871-0.908-2.13-3.576-0.981-4.243C2.49,7.641,2.966,5.652,3.597,4.651C3.296,4.331,3,3.997,2.715,3.634
						c-0.787,0.435-1.871,3.27-0.639,4.585c-1.148,0.667-0.889,3.334,0.982,4.242c0,0,0.491,0.25,0.046,0.028
						c-1.538,1.083,0.769,3.798,2.519,4.113c-0.59,0.469,0.752,1.533,2.495,1.889C7.146,18.024,6.595,17.396,7.013,17.064z"/><path fill="#55FB9B" d="M25.16 4.18c.54.79.01 2.08.01 2.08s-1.39 0-1.92-.8C22.72 4.67 22.79 3 22.79 3S24.63 3.38 25.16 4.18zM30.33 7.67c0 0-.78 1.2-1.61 1.43-.82.23-1.78-.58-1.78-.58s.4-1.19 1.23-1.42C28.99 6.87 30.33 7.67 30.33 7.67zM29.66 1.5c0 0 .3 1.55-.18 2.38C28.99 4.71 27.6 4.8 27.6 4.8s-.61-1.26-.12-2.09C27.96 1.88 29.66 1.5 29.66 1.5z"/><path fill="#455A64" d="M10.802 29.946c-.121 0-.243-.044-.339-.132-.203-.188-.216-.503-.029-.707.33-.357 1.244-1.377 1.51-1.797.148-.233.456-.302.69-.154.233.148.302.457.154.69-.363.572-1.492 1.801-1.619 1.939C11.071 29.892 10.937 29.946 10.802 29.946zM7.829 28.772c-.155 0-.309-.072-.406-.208-.161-.224-.11-.537.113-.698.103-.074.247-.169.42-.284.524-.347 1.316-.872 1.909-1.446.198-.192.516-.188.707.011.192.199.188.515-.011.707-.66.639-1.498 1.195-2.053 1.563-.16.105-.293.194-.387.262C8.032 28.742 7.93 28.772 7.829 28.772zM4.937 27.042c-.207 0-.4-.129-.472-.335-.091-.261.046-.546.307-.637l.307-.104c.706-.239 2.02-.684 2.786-1.153.236-.145.544-.07.688.165.145.235.07.543-.165.688-.861.528-2.244.996-2.987 1.248l-.297.102C5.047 27.033 4.992 27.042 4.937 27.042zM18.214 11.705c-.126 0-.252-.047-.349-.142-.567-.553-1.305-1.078-2.086-1.634-1.771-1.26-3.948-2.81-5.265-5.548-.183.193-.398.485-.548.842C9.86 5.472 9.713 5.942 9.9 6.3c.129.244.035.546-.21.675S9.144 7.01 9.016 6.765C8.719 6.202 8.746 5.479 9.09 4.73c.314-.685.939-1.448 1.525-1.583.24-.057.48.07.574.296 1.167 2.824 3.293 4.336 5.169 5.671.814.579 1.583 1.126 2.205 1.733.198.193.202.509.009.707C18.474 11.655 18.344 11.705 18.214 11.705zM18.819 14.159c-.045 0-.092-.006-.139-.02-.265-.077-.418-.354-.342-.619l1.171-4.06c.294-.999 1.222-1.695 2.259-1.695 1.297 0 2.353 1.055 2.353 2.353 0 .276-.224.5-.5.5s-.5-.224-.5-.5c0-.758-.594-1.353-1.353-1.353-.596 0-1.13.401-1.299.975l-1.17 4.058C19.236 14.016 19.036 14.159 18.819 14.159z"/><path fill="#455A64" d="M12.435,30.937c-0.395,0-0.782-0.059-1.105-0.175c-0.347-0.125-0.614-0.311-0.789-0.542
				c-0.791,0.31-1.862,0.113-2.578-0.383c-0.361-0.25-0.594-0.555-0.688-0.877c-0.907,0.122-1.78-0.262-2.304-0.772
				c-0.366-0.356-0.575-0.777-0.605-1.188c-0.768-0.2-1.385-0.934-1.636-1.682c-0.328-0.979-0.039-1.885,0.736-2.309
				c0.041-0.022,0.084-0.039,0.129-0.049c2.749-0.624,9.436-1.683,10.795-1.896l0.476-0.802c0.141-0.238,0.448-0.315,0.685-0.175
				c0.238,0.141,0.316,0.448,0.175,0.685l-0.596,1.005c-0.076,0.128-0.206,0.216-0.354,0.239c-0.079,0.012-7.859,1.226-10.884,1.902
				c-0.426,0.281-0.294,0.846-0.215,1.083c0.188,0.559,0.695,1.119,1.187,1.046c0.187-0.026,0.363,0.049,0.473,0.195
				c0.11,0.147,0.13,0.342,0.054,0.509c-0.106,0.23,0.073,0.523,0.276,0.72c0.444,0.433,1.252,0.694,1.939,0.355
				c0.194-0.097,0.431-0.056,0.583,0.103c0.151,0.158,0.182,0.396,0.077,0.586c-0.031,0.057-0.126,0.229,0.265,0.5
				c0.551,0.381,1.55,0.509,1.89,0.11c0.14-0.164,0.369-0.22,0.567-0.139c0.2,0.08,0.325,0.279,0.312,0.494
				c-0.008,0.136,0.116,0.25,0.368,0.341c0.685,0.248,1.736,0.073,2.02-0.237c0.137-0.299,0.793-1.742,1.435-3.207
				c0.659-1.501,2.097-2.492,3.663-2.522c1.021-0.01,3.507-0.307,4.658-2.829c1.178-2.585,0.611-5.131,0.168-6.419
				c-0.325-0.926-0.491-1.898-0.491-2.886v-0.278c0-0.223,0.147-0.418,0.361-0.48l1.028-0.296c0.264-0.075,0.543,0.077,0.619,0.342
				c0.077,0.266-0.077,0.542-0.342,0.619l-0.666,0.192c0.011,0.841,0.157,1.668,0.435,2.46c0.493,1.432,1.12,4.262-0.202,7.163
				c-1.39,3.045-4.347,3.402-5.554,3.414c-1.173,0.023-2.258,0.778-2.761,1.924c-0.724,1.652-1.467,3.277-1.467,3.277
				c-0.014,0.031-0.031,0.06-0.051,0.087C14.13,30.676,13.264,30.937,12.435,30.937z"/><path fill="#455A64" d="M19.23,15.221c-0.216,0-0.416-0.141-0.479-0.359c-0.761-2.59-3.231-3.475-6.358-4.594
				c-3.193-1.143-6.795-2.433-9.716-5.89c-0.23,0.341-0.499,0.928-0.611,1.637C1.992,6.482,1.942,7.345,2.44,7.877
				c0.096,0.102,0.144,0.239,0.134,0.378S2.496,8.523,2.387,8.61c-0.301,0.239-0.461,0.852-0.391,1.488
				c0.045,0.411,0.261,1.419,1.279,1.913c0.249,0.121,0.352,0.419,0.231,0.668c-0.121,0.249-0.42,0.352-0.668,0.231
				c-1.017-0.493-1.704-1.503-1.836-2.702C0.917,9.435,1.081,8.694,1.43,8.19C1.058,7.584,0.933,6.775,1.078,5.859
				c0.187-1.182,0.786-2.326,1.395-2.663c0.216-0.119,0.484-0.064,0.635,0.128c2.801,3.561,6.425,4.857,9.622,6.002
				c3.26,1.167,6.076,2.175,6.98,5.253c0.078,0.265-0.074,0.543-0.338,0.621C19.324,15.215,19.276,15.221,19.23,15.221z"/><path fill="#455A64" d="M12.782 20.182c-.998 0-1.856-.229-2.352-.647-.17-.143-.293-.309-.366-.487C7.958 19.363 5.608 18.311 5.1 17.33c-.068-.131-.106-.264-.116-.393-1.277-.49-2.565-1.824-2.832-3.029C1.984 13.149 2.22 12.5 2.816 12.08c.225-.159.537-.105.697.121.159.226.105.538-.121.697-.177.125-.367.328-.264.794.219.989 1.547 2.231 2.583 2.418.193.035.349.18.396.37.039.154.002.314-.094.434.079.114.293.322.699.546.858.474 2.337.891 3.679.496.184-.054.383.002.512.145s.165.346.092.523c-.012.029-.024.06.079.146.628.529 3.029.723 5.069-.551.233-.146.542-.074.689.16.146.234.075.542-.16.689C15.441 19.836 14.007 20.182 12.782 20.182zM7.715 11.4c-2.144 0-5.851-2.723-5.89-2.752C1.603 8.484 1.556 8.171 1.72 7.949c.164-.221.478-.27.699-.104 1.175.869 4.177 2.723 5.453 2.546.278-.035.525.155.563.429.037.274-.155.525-.429.563C7.913 11.395 7.815 11.4 7.715 11.4z"/><path fill="#455A64" d="M2.122 8.747c-.087 0-.176-.023-.257-.071-.237-.142-.337-.463-.195-.7C1.813 7.738 2.097 7.648 2.333 7.79l.046.028C2.616 7.96 2.693 8.267 2.551 8.504 2.457 8.66 2.292 8.747 2.122 8.747zM7.695 14.158c-2.296 0-4.539-1.084-4.814-1.222-.048-.024-.138-.083-.176-.122-.195-.195-.195-.512 0-.707.172-.172.438-.193.633-.061.363.179 2.852 1.357 5.075 1.067.268-.04.524.157.56.431.036.273-.157.524-.431.56C8.26 14.142 7.977 14.158 7.695 14.158z"/><path fill="#455A64" d="M3.058 12.961c-.052 0-.105-.008-.158-.026-.262-.087-.417-.375-.33-.637.088-.262.357-.408.619-.321l.028.009c.262.087.403.37.316.632C3.462 12.829 3.267 12.961 3.058 12.961zM5.688 17.12c-.271 0-.494-.217-.5-.489-.005-.276.213-.505.489-.511.026 0 2.605-.066 4.27-.993.242-.133.545-.047.68.194.134.241.047.546-.194.68-1.884 1.049-4.619 1.117-4.735 1.119C5.695 17.12 5.691 17.12 5.688 17.12zM10.532 18.936c-.247 0-.461-.182-.495-.434-.037-.273.155-.525.429-.562 0 0 .806-.144 2.135-1.259.212-.176.528-.148.705.062.177.211.149.527-.062.705-1.557 1.306-2.538 1.469-2.645 1.483C10.577 18.934 10.554 18.936 10.532 18.936zM21.861 10.618c-.276 0-.546-.224-.546-.5s.177-.5.454-.5h.093c.276 0 .5.224.5.5S22.137 10.618 21.861 10.618zM26.699 14.515c-.195 0-.38-.115-.461-.306-.037-.088-.909-2.171-1.107-3.444-.531-3.402 1.994-6.187 2.102-6.304.187-.204.504-.215.706-.029.203.187.217.503.03.706-.023.025-2.305 2.554-1.849 5.472.18 1.154 1.032 3.19 1.041 3.21.107.254-.013.548-.267.655C26.83 14.502 26.764 14.515 26.699 14.515zM25.17 6.76c-.17 0-1.678-.029-2.337-1.024-.602-.897-.55-2.569-.542-2.757.006-.146.076-.283.192-.373.115-.09.264-.126.409-.096.209.043 2.06.449 2.686 1.394.668.979.12 2.389.055 2.546C25.555 6.637 25.373 6.76 25.17 6.76zM23.3 3.655c.036.554.142 1.195.365 1.527.227.342.757.492 1.149.548.095-.382.161-.936-.066-1.268C24.523 4.124 23.86 3.835 23.3 3.655z"/><path fill="#455A64" d="M28.41 9.641c-.891 0-1.703-.663-1.792-.739-.157-.132-.217-.347-.152-.542.05-.147.515-1.45 1.571-1.743.918-.256 2.412.54 2.55.623.117.069.2.184.23.316.031.133.006.272-.067.386-.091.139-.912 1.367-1.896 1.64C28.714 9.621 28.564 9.641 28.41 9.641zM27.562 8.347c.292.177.726.357 1.023.272.319-.088.694-.434.985-.773-.407-.179-.971-.343-1.266-.264C27.984 7.67 27.721 8.043 27.562 8.347zM27.6 5.3c-.191 0-.366-.109-.45-.282-.074-.153-.709-1.531-.101-2.562.571-.988 2.306-1.4 2.502-1.444.131-.031.269-.005.383.069.113.074.191.191.217.324.035.177.319 1.761-.238 2.725-.608 1.032-2.111 1.157-2.28 1.168C27.622 5.299 27.611 5.3 27.6 5.3zM29.237 2.142c-.531.184-1.127.479-1.324.818-.211.357-.111.911.009 1.288.391-.082.917-.266 1.128-.623C29.261 3.261 29.272 2.625 29.237 2.142z"/></svg>