<svg xmlns="http://www.w3.org/2000/svg" viewBox="0 0 512 512"><path fill="#f2ddd4" d="M430.88,173.56c49.51,114.15-30.61,273.69-115.76,286.82-14,2.16-42,3.36-68.75-10-42.69-21.41-42.88-59.89-75.26-64.73-26.45-3.95-37,20.12-74.54,16.63,0,0-20.8-1.94-39.84-13.64C3.91,356.19,9.13,265.19,21.26,216.8,36.62,155.51,82.68,89.67,158.86,62.42c86.36-30.9,160.79,5.9,177.42,14.72C351.36,85.15,404.85,113.54,430.88,173.56Z"/><path fill="#ff7769" d="M320.65 80.39l5.49-16.09a3.56 3.56 0 016.73 0l5.49 16.09a3.6 3.6 0 002.22 2.22l16.09 5.49a3.56 3.56 0 010 6.73l-16.09 5.49a3.57 3.57 0 00-2.22 2.22l-5.49 16.09a3.56 3.56 0 01-6.73 0l-5.49-16.09a3.55 3.55 0 00-2.22-2.22l-16.09-5.49a3.56 3.56 0 010-6.73l16.09-5.49A3.57 3.57 0 00320.65 80.39zM259.86 399.34l5.34-15.65a3.45 3.45 0 016.54 0l5.35 15.65a3.47 3.47 0 002.15 2.16l15.66 5.34a3.46 3.46 0 010 6.55l-15.66 5.34a3.47 3.47 0 00-2.15 2.16l-5.35 15.65a3.45 3.45 0 01-6.54 0l-5.34-15.65a3.46 3.46 0 00-2.16-2.16l-15.65-5.34a3.46 3.46 0 010-6.55l15.65-5.34A3.46 3.46 0 00259.86 399.34zM393.5 351.12l3.89-11.39a2.51 2.51 0 014.76 0L406 351.12a2.51 2.51 0 001.57 1.56L419 356.57a2.51 2.51 0 010 4.76l-11.39 3.89a2.52 2.52 0 00-1.57 1.57l-3.89 11.39a2.51 2.51 0 01-4.76 0l-3.89-11.39a2.53 2.53 0 00-1.56-1.57l-11.39-3.89a2.51 2.51 0 010-4.76l11.39-3.89A2.52 2.52 0 00393.5 351.12zM153.31 121.4l5.15-12.65c1-2.52 4.5-2.79 5.15-.39l3.27 12a2.21 2.21 0 001.57 1.56l12 3.27c2.39.65 2.13 4.13-.39 5.16l-12.66 5.15a3.37 3.37 0 00-1.82 1.83L160.44 150c-1 2.52-4.51 2.79-5.16.39l-3.27-12a2.22 2.22 0 00-1.57-1.57l-12-3.26c-2.39-.66-2.12-4.13.4-5.16l12.65-5.15A3.38 3.38 0 00153.31 121.4z"/><path fill="#427c54" d="M314.19,329.75a35.24,35.24,0,0,1-5.14-.37c-21.87-3.23-40.3-27.77-47-62.53a2,2,0,0,1,3.93-.76c6.34,33.07,23.46,56.36,43.63,59.33,8.11,1.2,16.83-.87,25.22-6,18-10.94,21.74-30.82,25.75-51.88,3.72-19.55,7.57-39.76,23.14-54.09,14.7-13.54,37.29-19,67.14-16.14a2,2,0,1,1-.37,4c-28.68-2.72-50.23,2.36-64.06,15.1-14.6,13.44-18.32,33-21.92,51.9-4,21-8.13,42.69-27.6,54.55C329.47,327.41,321.7,329.75,314.19,329.75Z"/><path fill="#524b92" d="M465.48,179.18c9.28-15.92,13-30,7.91-34.91a8.12,8.12,0,0,0-5.09-2.09c-8.87-.4-15.52,15.62-15.52,15.62S460,130,442.45,135.4,415.33,192.79,428.33,211c16.83,23.5,57.08,25.59,62.2,16.12,3-5.59-5.64-16.2-13.58-24.41,10-3.85,17.56-9.64,17-14.2C493.32,183.23,482,178.33,465.48,179.18Z"/><path fill="#7d6fdb" d="M447.89,187.43a.5.5,0,0,1-.16-1L492,171.74a.5.5,0,1,1,.32.94l-44.27,14.73Z"/><circle cx="493.98" cy="171.55" r="4.79" fill="#7d6fdb"/><path fill="#7d6fdb" d="M443.1,201.94a.5.5,0,0,1,0-1l46.51-3.76a.5.5,0,0,1,.08,1l-46.51,3.77Z"/><circle cx="491.54" cy="197.47" r="4.79" fill="#7d6fdb"/><path fill="#7d6fdb" d="M443.73,176.71a.49.49,0,0,1-.38-.18.51.51,0,0,1,.06-.71l35.67-30.07a.5.5,0,0,1,.65.77l-35.67,30.07A.52.52,0,0,1,443.73,176.71Z"/><circle cx="480.85" cy="144.85" r="4.79" fill="#7d6fdb"/><path fill="#ce7b30" d="M86.47 307a116.16 116.16 0 00-28.71-41.58 114.87 114.87 0 00-20.44-15.08 3.85 3.85 0 012-7.18h53zM203.47 259.87s-22.84 18.74-9.95 48.32l-35.44.3 10.25-51.84 31-8.2z"/><path fill="#ce7b30" d="M214,312.19H112.39a4,4,0,0,1-4-4V239.08a4,4,0,0,1,4-4H239.5a4,4,0,0,1,4,4v43.61A29.54,29.54,0,0,1,214,312.19Zm-97.61-8H214a21.52,21.52,0,0,0,21.5-21.5V243.08H116.39Z"/><path fill="#eaa542" d="M85.28,260.21,64.26,192a8.87,8.87,0,0,1,8.48-11.48H381.56a8.87,8.87,0,0,1,8.87,8.87V257.6a8.87,8.87,0,0,1-8.87,8.87H93.75A8.86,8.86,0,0,1,85.28,260.21Z"/><path fill="#eaa542" d="M175.24,410.11H92.56a8.87,8.87,0,0,1-8.87-8.86V234.61a8.87,8.87,0,0,1,8.56-8.87l56.22-2a8.87,8.87,0,0,1,9.07,7.49L184,399.87A8.86,8.86,0,0,1,175.24,410.11Z"/><path fill="#eaa542" d="M174.44,339s-14.6-72.5,15.85-72.5l-9.67-36.18-68.23,22.26,21.51,77.9Z"/><path fill="#ffbd54" d="M91.3,260.16s2.63,92.55,1,117.15,7.77,22.85,23.58,22.26,58.58,5.27,60-2.34-21.38-63.85-21.38-96.06,7-32.81,3.52-41S132.31,270.71,91.3,260.16Z"/><path fill="#ce7b30" d="M390.43,247.18h0L82.8,246.59a4,4,0,0,1,0-8h0l307.62.59a4,4,0,0,1,0,8Z"/><circle cx="135.38" cy="286.38" r="11.28" fill="#ce7b30"/><path fill="#ffbd54" d="M79.59,189.87s11.25,25.47,12.66,35.87,283.14,8.07,286.07,4.55.58-34.56,0-40.42S75.09,179.13,79.59,189.87Z"/><path fill="#427c54" d="M63.86,392.66a2,2,0,0,1-1.34-.52c-.56-.5-13.57-12.46-11.6-26.81,1.25-9.17,8.28-17,20.89-23.32,18.59-9.29,42.59-6.74,65.8-4.28,26.22,2.79,51,5.42,64.38-9.47,13-14.47,10.51-45.09,8.09-74.71-2.3-28.24-4.69-57.44,6.21-74.14,7.25-11.11,14.62-16.42,21.92-15.75,11.09,1,17.27,15.45,17.53,16.07a2,2,0,0,1-3.69,1.55c-.05-.13-5.52-12.85-14.21-13.63-5.7-.52-11.82,4.18-18.2,13.94-10.15,15.56-7.82,44.07-5.57,71.64,2.48,30.46,5.06,62-9.11,77.71-14.76,16.4-40.51,13.67-67.77,10.77-22.64-2.41-46-4.89-63.59,3.88C62.25,351.26,56,358.08,54.88,365.85c-1.69,12.25,10.21,23.22,10.33,23.33a2,2,0,0,1,.13,2.82A2,2,0,0,1,63.86,392.66Z"/><path fill="#739e71" d="M55.13 357.08c-4.2 2.85-27-14.49-28.9-35.93-.09-1-1-12.85 3.68-14.77 5.12-2.1 13.76 8.89 15.07 10.56 8.27 10.51 9.34 21.71 10.54 34.28C56 355.86 55.72 356.68 55.13 357.08zM83.48 340c-5.06-.45-11.79-28.33.33-46.11.59-.87 7.34-10.59 12.18-9.12 5.3 1.61 5 15.59 5 17.71-.24 13.38-6.49 22.73-13.51 33.23C84.89 339.59 84.19 340.07 83.48 340zM188.11 336c1.06-5 29.55-8.25 45.72 5.94.8.69 9.63 8.57 7.58 13.2-2.25 5.06-16.09 3.11-18.19 2.81-13.25-1.87-21.77-9.21-31.34-17.45C188.35 337.45 188 336.7 188.11 336zM147.84 342.33c-3.89-3.26 6.58-30 26.7-37.58 1-.38 12.09-4.48 15.21-.49 3.42 4.35-4.81 15.66-6.05 17.37-7.87 10.82-18.36 14.9-30.12 19.48C149.23 342.8 148.38 342.79 147.84 342.33zM216.33 303.88c-4.3 2.71-26.52-15.42-27.64-36.9-.05-1.06-.56-12.88 4.19-14.64 5.19-1.92 13.44 9.36 14.69 11.07 7.9 10.8 8.58 22 9.35 34.63C217.2 302.69 216.93 303.5 216.33 303.88zM211.79 209.27c-4.3 2.7-26.53-15.42-27.64-36.91-.05-1.05-.57-12.87 4.18-14.63 5.2-1.93 13.45 9.36 14.7 11.07 7.9 10.8 8.58 22 9.35 34.63C212.66 208.08 212.39 208.89 211.79 209.27zM64.08 350.37c-1 5 23.88 19.25 44.35 12.61 1-.33 12.22-4.08 12.17-9.14-.06-5.54-13.55-9.21-15.6-9.77-12.91-3.51-23.64-.14-35.68 3.65C64.87 349.12 64.22 349.67 64.08 350.37zM121.08 336.93c-3.34 3.82 11.1 28.6 32.15 33 1 .22 12.63 2.57 15.11-1.85 2.71-4.82-7.16-14.74-8.65-16.24-9.44-9.48-20.42-11.91-32.75-14.63C122.39 336.25 121.55 336.39 121.08 336.93zM279.78 303.2c-4.45-2.44-25.54 17-25.36 38.5 0 1.05.2 12.88 5.05 14.36 5.3 1.6 12.86-10.16 14-11.94 7.23-11.25 7.24-22.5 7.25-35.13C280.73 304.33 280.41 303.54 279.78 303.2zM334.22 319.73c4.84 1.53 21.76-21.63 17.4-42.7-.22-1-2.71-12.6-7.75-13.1-5.51-.55-10.64 12.46-11.42 14.43-4.91 12.45-2.73 23.48-.28 35.87C333.07 318.8 333.54 319.51 334.22 319.73zM209.9 239.61c2.31 4.52 30.68.32 42.63-17.57.59-.88 7.08-10.78 3.9-14.72-3.48-4.31-16.35 1.17-18.3 2-12.31 5.24-18.64 14.54-25.75 25C209.76 238.14 209.58 239 209.9 239.61zM249.59 183.35c2.31 4.52 30.68.32 42.63-17.57.58-.88 7.07-10.77 3.89-14.71-3.48-4.31-16.34 1.16-18.29 2-12.31 5.24-18.64 14.53-25.75 25C249.44 181.88 249.27 182.72 249.59 183.35zM266.83 282.38c1.05-5 29.55-8.25 45.72 5.94.79.7 9.62 8.57 7.57 13.21-2.24 5.06-16.09 3.1-18.18 2.81-13.25-1.88-21.77-9.22-31.34-17.46C267.07 283.84 266.68 283.08 266.83 282.38zM357.41 289.91c-1.06-5 23.64-19.55 44.18-13.17 1 .32 12.28 3.92 12.29 9 0 5.54-13.44 9.38-15.47 10-12.86 3.68-23.64.44-35.73-3.2C358.22 291.15 357.56 290.61 357.41 289.91zM302.5 324.88c3.62-3.56 29.21 9.38 34.9 30.13.28 1 3.32 12.45-.95 15.19-4.66 3-15.14-6.26-16.73-7.66-10-8.86-13.1-19.68-16.55-31.83C301.9 326.23 302 325.38 302.5 324.88z"/><path fill="#7d6fdb" d="M453.72,181.25c11.38-14.48,17-27.87,12.65-33.48a8.12,8.12,0,0,0-4.76-2.77c-8.73-1.62-17.52,13.33-17.52,13.33s10.93-26.56-7.15-23.61-34.77,53.11-24.39,72.89c13.42,25.59,53,33.2,59.38,24.53,3.76-5.12-3.36-16.82-10.09-26,10.48-2.42,18.72-7.12,18.81-11.72C480.74,189.11,470.17,182.68,453.72,181.25Z"/></svg>