<?xml version="1.0" encoding="iso-8859-1"?>
<!-- Generator: Adobe Illustrator 18.0.0, SVG Export Plug-In . SVG Version: 6.00 Build 0)  -->
<!DOCTYPE svg PUBLIC "-//W3C//DTD SVG 1.1//EN" "http://www.w3.org/Graphics/SVG/1.1/DTD/svg11.dtd">
<svg version="1.1" id="Capa_1" xmlns="http://www.w3.org/2000/svg" xmlns:xlink="http://www.w3.org/1999/xlink" x="0px" y="0px"
	 viewBox="0 0 489.695 489.695" style="enable-background:new 0 0 489.695 489.695;" xml:space="preserve">
<g id="XMLID_137_">
	<path id="XMLID_143_" d="M426.977,244.836c28.906-32.865,50.336-72.613,62.172-117.177c2.303-8.68-2.877-17.585-11.551-19.887
		c-8.656-2.279-17.582,2.867-19.899,11.547c-10.294,38.805-28.831,73.472-53.769,102.318c-33.373-30.077-74.004-52.4-119.764-64.522
		c-100.627-26.604-199.691,6.174-277.734,74.823C5.936,232.376,0,237.54,0,244.836c0,7.909,6.066,12.547,6.623,13.025
		c59.016,50.877,127.2,84.589,202.234,84.589c24.955,0,50.227-3.254,75.309-9.896c45.76-12.127,86.391-34.443,119.764-64.52
		c24.938,28.846,43.475,63.52,53.769,102.326c1.938,7.289,8.513,12.103,15.71,12.103c1.38-0.009,2.792-0.185,4.189-0.556
		c8.674-2.303,13.854-11.206,11.551-19.888C477.313,317.458,455.883,277.698,426.977,244.836z M349.605,268.002
		c-1.363-1.167-3.16-1.676-4.939-1.398c-6.769,1.073-13.564,2.066-20.398,2.972c0-6.401,0-12.796,0-19.197
		c5.912-0.19,11.791-0.404,17.65-0.625c3.891-0.146,6.973-3.346,6.973-7.245c0-0.238,0-0.477,0-0.724
		c0-2.84-2.225-5.185-5.067-5.336c-6.497-0.342-13.007-0.658-19.556-0.951c0-5.593,0-11.191,0-16.791
		c6.293,0.826,12.553,1.725,18.793,2.7c1.779,0.271,3.559-0.253,4.943-1.374c11.719,7.403,22.791,15.663,33.053,24.804
		c-9.703,8.641-20.107,16.512-31.119,23.603C349.813,268.31,349.748,268.12,349.605,268.002z M94.508,217.816
		c7.578-1.19,11.885,2.828,11.885,10.532c0,8.584-5.01,13.7-13.076,13.715c-2.176,0.024-3.777-0.07-5.08-0.39
		c0-7.4,0-14.812,0-22.213C89.361,218.944,91.426,218.277,94.508,217.816z M73.287,219.69c0,16.767,0,33.54,0,50.299
		c-11.596-7.428-22.762-15.742-33.262-25.153C50.525,235.439,61.691,227.117,73.287,219.69z M275.825,301.104
		c-64.872,17.21-131.14,8.674-187.589-22.246c0-8.005,0-16.003,0-24.001c1.396,0.31,3.189,0.556,5.193,0.684
		c8.959,0.619,16.662-1.573,21.855-7.798c4.018-4.813,6.211-12.279,6.211-20.977c0-8.713-2.908-15.795-7.211-19.441
		c-2.955-2.564-6.977-3.701-11.945-3.662c53.227-24.968,113.953-30.887,173.485-15.096c12.897,3.415,25.271,7.83,37.183,12.992
		c-0.967-0.118-1.982,0.072-2.732,0.706c-0.825,0.684-1.303,1.701-1.303,2.766c0,26.072,0,52.138,0,78.212
		c0,1.073,0.478,2.081,1.303,2.763c0.811,0.684,1.91,0.962,2.957,0.764c1.844-0.351,3.652-0.85,5.479-1.216
		C305.064,291.851,290.787,297.142,275.825,301.104z"/>
	<path id="XMLID_142_" d="M165.686,275.619c-6.371-0.351-12.742-0.771-19.096-1.264c0-7.592,0-15.191,0-22.794
		c5.438,0.104,10.881,0.19,16.33,0.271c2.321,0.032,4.545-0.856,6.18-2.478c1.654-1.621,2.572-3.828,2.572-6.14
		c0-0.19,0-0.39,0-0.58c0-2.445-0.982-4.789-2.732-6.505c-1.748-1.714-4.111-2.65-6.561-2.604
		c-5.271,0.103-10.531,0.221-15.789,0.357c0-6.647,0-13.295,0-19.949c5.99-0.462,11.994-0.852,18.014-1.184
		c4.83-0.271,8.597-4.25,8.597-9.087c0-0.214,0-0.437,0-0.651c0-2.454-1.048-4.795-2.862-6.455c-1.809-1.653-4.224-2.471-6.67-2.248
		c-9.832,0.881-19.631,2.032-29.404,3.453c-1.762,0.257-3.063,1.772-3.063,3.552c0,28.552,0,57.104,0,85.654
		c0,1.786,1.302,3.295,3.063,3.551c10.328,1.508,20.701,2.707,31.088,3.613c2.381,0.206,4.73-0.589,6.496-2.201
		c1.762-1.611,2.762-3.891,2.762-6.281c0-0.205,0-0.405,0-0.61C174.609,280.027,170.689,275.889,165.686,275.619z"/>
	<path id="XMLID_139_" d="M218.436,192.14c-4.844-0.056-9.674-0.038-14.516,0.033c-1.684,0.03-3.129,1.232-3.463,2.883
		c-6.197,30.934-12.408,61.717-18.602,91.786c-0.43,2.103,0.076,4.295,1.399,5.994c1.314,1.7,3.319,2.733,5.461,2.828
		c0.191,0.009,0.381,0.016,0.588,0.023c3.926,0.167,7.371-2.588,8.086-6.457c1.207-6.592,2.414-13.198,3.639-19.813
		c6.51,0.072,13.055,0.078,19.586,0.03c1.314,6.687,2.635,13.358,3.955,20.021c0.762,3.804,4.146,6.489,8.02,6.347
		c0.207-0.009,0.412-0.018,0.619-0.023c2.32-0.089,4.479-1.199,5.909-3.027c1.431-1.833,1.985-4.192,1.509-6.464
		c-6.229-29.966-12.486-60.582-18.729-91.285C221.564,193.356,220.119,192.155,218.436,192.14z M203.266,251.855
		c1.351-7.337,2.701-14.684,4.051-22.046c1.113-6.029,2.113-13.906,3.16-20.085c0.064,0,0.129,0,0.189,0
		c1.004,6.17,2.213,13.897,3.45,20.076c1.411,7.361,2.825,14.718,4.241,22.063C213.32,251.872,208.303,251.872,203.266,251.855z"/>
	<path id="XMLID_138_" d="M294.457,198.86c-3.176-1.503-7.371-3.145-11.373-3.695c-20.555-3.088-37.218,15.48-37.201,50.495
		c-0.017,29.132,12.184,50.837,35.678,47.541c4.574-0.61,8.543-1.826,11.658-3.177c3.477-1.499,5.492-5.137,4.94-8.87
		c-0.018-0.19-0.049-0.374-0.078-0.565c-0.32-2.136-1.541-4.042-3.338-5.232c-1.809-1.192-4.033-1.565-6.133-1.009
		c-1.553,0.404-3.159,0.705-4.717,0.842c-13.707,1.31-21.822-10.865-21.822-30.887c0-22.262,9.514-32.531,21.714-31.348
		c1.666,0.143,3.237,0.445,4.7,0.851c2.189,0.604,4.527,0.271,6.449-0.922c1.921-1.19,3.254-3.13,3.699-5.346
		c0.018-0.11,0.031-0.223,0.065-0.333C299.366,203.782,297.617,200.344,294.457,198.86z"/>
</g>
<g>
</g>
<g>
</g>
<g>
</g>
<g>
</g>
<g>
</g>
<g>
</g>
<g>
</g>
<g>
</g>
<g>
</g>
<g>
</g>
<g>
</g>
<g>
</g>
<g>
</g>
<g>
</g>
<g>
</g>
</svg>
