<svg xmlns="http://www.w3.org/2000/svg" viewBox="0 0 512 512"><path fill="#f2ddd4" d="M403.44,439.12H108.56c-21.63,0-39.17-12-39.17-26.86V160.07c0-5.63,2.57-11.12,7.37-15.68,18.74-17.82,70.72-58.94,157.36-64.83,77.83-5.3,154.73,19.81,201.22,64.88,4.71,4.56,7.27,10,7.27,15.59V412.26C442.61,427.09,425.07,439.12,403.44,439.12Z"/><path fill="#729e72" d="M194.18 453.38S174.07 428.76 181.32 412 205.15 427.44 194.18 453.38zM165.16 440.48s-20.1-24.63-12.85-41.39S176.14 414.54 165.16 440.48zM134.69 418.88s-20.11-24.62-12.86-41.39S145.66 392.94 134.69 418.88z"/><path fill="#729e72" d="M166.19 440.23s-29.09-12.83-43.32-1.39S144.1 457.71 166.19 440.23zM196.28 453.45s-30.74-8.11-43 5.42S177.2 474.18 196.28 453.45zM135.42 418.82s-25.36-19.17-41.84-11.29S109.91 430.76 135.42 418.82z"/><path fill="#427c54" d="M224.84,460.15c-31.74,0-64.35-15.13-94.94-44.18a264.63,264.63,0,0,1-40.82-49.82A2.13,2.13,0,1,1,92.74,364a260.19,260.19,0,0,0,40.17,49c22.88,21.71,59,46.69,101.35,42.46a2.14,2.14,0,0,1,.42,4.25C231.41,460,228.13,460.15,224.84,460.15Z"/><path fill="#524b92" d="M78.24,357.5a.53.53,0,0,1-.44-.23L64,337a.52.52,0,0,1,.14-.74.53.53,0,0,1,.74.14l13.8,20.27a.53.53,0,0,1-.14.74A.55.55,0,0,1,78.24,357.5Z"/><circle cx="63.84" cy="335.87" r="2.52" fill="#7d6fdb"/><path fill="#524b92" d="M86.26,357.84a.53.53,0,0,1-.5-.35l-8.58-23a.54.54,0,0,1,.31-.69.54.54,0,0,1,.69.32l8.58,23a.53.53,0,0,1-.31.69A.58.58,0,0,1,86.26,357.84Z"/><circle cx="77.3" cy="333.39" r="2.52" fill="#7d6fdb"/><path fill="#524b92" d="M73.41,361.15a.52.52,0,0,1-.29-.09L52.79,347.34a.53.53,0,0,1,.59-.89l20.33,13.72a.54.54,0,0,1,.15.74A.57.57,0,0,1,73.41,361.15Z"/><circle cx="52.22" cy="346.35" r="2.52" fill="#7d6fdb"/><path fill="#7d6fdb" d="M78.39,353.34c-9-3.68-16.54-4.61-18.75-1.59a4.31,4.31,0,0,0-.72,2.81c.44,4.65,9.26,6.94,9.26,6.94s-15-1.71-10.92,7,31.86,9.95,40.37,1.86c11-10.46,9.17-31.57,3.87-33.55-3.13-1.17-8,4.11-11.72,8.84-2.73-5-6.29-8.44-8.63-7.82C78.48,338.55,76.75,344.82,78.39,353.34Z"/><path fill="#739e71" d="M294 64.51s24.1 20.73 19.89 38.51S287.71 92 294 64.51zM324.8 72.15s24.11 20.73 19.9 38.5S318.53 99.61 324.8 72.15zM358.59 88.08s24.1 20.73 19.89 38.5S352.32 115.54 358.59 88.08z"/><path fill="#739e71" d="M323.84 72.57s30.88 7.55 42.89-6.21S342.53 51.5 323.84 72.57zM291.9 64.81S323.58 67.43 333.29 52 307.06 41.07 291.9 64.81zM357.87 88.27s28.33 14.44 43.17 3.8S380.9 72.05 357.87 88.27z"/><path fill="#427c54" d="M411.1,135.55a2.13,2.13,0,0,1-1.62-.74,260.28,260.28,0,0,0-48.11-41.2C335.05,76.24,295.09,58,254.16,69.52a2.13,2.13,0,1,1-1.16-4.1c33.65-9.51,72-1,110.81,24.69A264.67,264.67,0,0,1,412.71,132a2.13,2.13,0,0,1-1.61,3.52Z"/><path fill="#524b92" d="M442.12,157.25a.51.51,0,0,1-.38-.16L424.6,139.54a.53.53,0,0,1,0-.75.53.53,0,0,1,.75,0l17.14,17.54a.54.54,0,0,1,0,.76A.53.53,0,0,1,442.12,157.25Z"/><circle cx="442.85" cy="157.43" r="2.52" fill="#7d6fdb"/><path fill="#524b92" d="M429.49,161.89a.52.52,0,0,1-.45-.26l-12.47-21.12a.53.53,0,0,1,.19-.73.54.54,0,0,1,.73.19L430,161.09a.53.53,0,0,1-.19.73A.5.5,0,0,1,429.49,161.89Z"/><circle cx="430.03" cy="162.23" r="2.52" fill="#7d6fdb"/><path fill="#524b92" d="M451.52,145.22a.54.54,0,0,1-.22,0l-22.42-10a.54.54,0,0,1,.44-1l22.41,9.95a.54.54,0,0,1,.27.71A.52.52,0,0,1,451.52,145.22Z"/><circle cx="452.46" cy="145.08" r="2.52" fill="#7d6fdb"/><path fill="#7d6fdb" d="M425.48,142.77c9.46,2,17.09,1.65,18.73-1.72a4.2,4.2,0,0,0,.22-2.88c-1.24-4.5-10.33-5.22-10.33-5.22s15.07-.94,9.52-8.81-33.1-4.23-40.07,5.22c-9,12.23-3.51,32.7,2.06,33.72,3.28.6,7.17-5.45,10-10.76,3.56,4.4,7.67,7.21,9.86,6.2C428,157.35,428.58,150.88,425.48,142.77Z"/><path fill="#ffb05c" d="M26,215.8s5.55,9.53,32,10.67,71.55-5.33,71.55-5.33l-4.87,18.4S89.9,246.1,75.31,249s-56.26-6.22-56.26-9.47,8.33-1.42,9-6.85S20.44,215.45,26,215.8Z"/><path fill="#ffbd55" d="M102.37,224.36C88,225.78,70.77,227,58,226.47,31.55,225.33,26,215.8,26,215.8c-5.56-.35,2.77,11.46,2.08,16.89s-9,3.6-9,6.85S60.73,251.92,75.31,249L80.72,248A299.09,299.09,0,0,1,102.37,224.36Z"/><path fill="#e0893b" d="M129.5,221.14s-11.94,1.71-27.13,3.22A299.09,299.09,0,0,0,80.72,248c16.33-3.2,43.91-8.41,43.91-8.41Z"/><path fill="#ffb05c" d="M486,212.41s-5.55,9.52-31.95,10.67-71.55-5.34-71.55-5.34l4.87,18.41s34.73,6.56,49.32,9.47S493,239.39,493,236.15s-8.33-1.43-9-6.86S491.56,212.06,486,212.41Z"/><path fill="#ffbd55" d="M409.63,221c14.35,1.43,31.6,2.67,44.42,2.12,26.4-1.15,31.95-10.67,31.95-10.67,5.56-.35-2.77,11.46-2.08,16.88s9,3.61,9,6.86-41.68,12.38-56.26,9.47l-5.41-1.07A300.87,300.87,0,0,0,409.63,221Z"/><path fill="#e0893b" d="M382.5,217.74s11.94,1.71,27.13,3.22a300.87,300.87,0,0,1,21.65,23.59c-16.33-3.19-43.91-8.4-43.91-8.4Z"/><circle cx="254.18" cy="264.45" r="142.03" fill="#739e71"/><path fill="#7cb779" d="M238.55 230.49c3.53 13.55 14.5 14.13 15.63 24.08 1.2 10.51-9.1 15-7.28 25 .54 3 2.61 6.08 7.33 9.55 16.28 12 29.48-19.3 42-8.88s29.87 23.31 43.76 8.88 36.82-14.43 41-33.19 4.87-36.82-14.58-39.59-33-37.25-55.42-36S299 206 289.26 217.06c-10.14 11.59-40.62-12.57-49.67-2.92C235.44 218.55 237.73 227.32 238.55 230.49zM214.24 141.35c11.12 20.14 16.67 43.76 35.43 38.2s15.28-29.87 25-21.53 24.31 11.81 25.7 1.39c1.19-8.95 15.71-15.27 31.23-14a142.21 142.21 0 00-127.36-13.91A27.09 27.09 0 01214.24 141.35zM151.55 307.71c10.42-14.59 18.23-23.44 30.22-27.61s36.47 0 33.86-19.28-17.19-22.92-21.88-29.69-1.56-20.84-17.71-26-31.26 16.15-33.35 5.73 5.73-14.07 11.47-30.44c2-5.69 1.84-11.88.79-17.52a142.14 142.14 0 00-32.61 154.51C133.48 317.18 146.21 315.19 151.55 307.71z"/><path fill="#7cb779" d="M254.18,406.49A142.08,142.08,0,0,0,394,289.36a88.71,88.71,0,0,0-11.7,1.33c-18.06,3.48-16.67,24.31-33.34,38.9s-41.68-2.08-60.43,2.09-27.79,36.81-41.68,30.56-16-17.37-13.89-32.65-32.65-25.7-36.12-12.21-15.29,20.55-34.74,28.88c-7.16,3.07-10,9.44-10.7,16.26A141.63,141.63,0,0,0,254.18,406.49Z"/><path fill="#ffbd55" d="M178.47,316.05a132.35,132.35,0,0,1-52.1-6.6c-13.67-4.7-34.63-11.91-38.12-27-.61-2.65-.14-9.53.78-23.31.63-9.28,1.13-11.54,2.58-13.75,5.3-8,18.39-7.85,23-7.59q-.33,1.61-.6,3.3a99.79,99.79,0,0,0-1.16,10.53,15.14,15.14,0,0,0-4.52-.2,9.92,9.92,0,0,0-6.51,2.9,11.46,11.46,0,0,0-2.34,7.11c-.11,9,17.38,22,33.65,28.86C170.35,306,213.93,296.2,240.21,283c-3-1.81-14.17-9.11-17.29-22.93-2.54-11.25.55-25.6,7.3-28.39a23.71,23.71,0,0,1,9.48-1.44,15.78,15.78,0,0,1,4,.54c4.36,1.35,7.68,4.94,10.11,8.82,6.08-5.17,13.79-6.83,19.78-5,6.84,2.11,13.66,9.54,10.4,23.51-2,8.55-8.68,17.34-19,25.37a79.08,79.08,0,0,0,23,6.35c29.79,3.84,43.39-5.7,55.39-14.11,8.46-5.93,17.21-12.06,29.55-11.32,23.58,1.43,34.33-4.34,36.53-10.21,1.17-3.12-.75-7-2.74-9.19-4.38-4.75-11.58-3.45-12.25-3.31l-3.13-14.07c1.8-.19,18.51-1.77,25.52,8.41,2.53,3.67,2.88,7.54,3.52,14.73.68,7.5,1.32,14.61-2.6,20.14-3.38,4.78-8.75,6.42-13.55,7.65-28.37,7.26-38.63.2-53.48,8-12.27,6.44-9.46,12.57-22.58,18.59-15.54,7.12-31.31,3.93-41.33,1.91a94.39,94.39,0,0,1-34.89-15c-1.15.64-2.9,1.6-5,2.71C235.08,300.9,209.7,313.79,178.47,316.05ZM240,243.88l-.33.25c-1.08.9-2.34,5.59-.37,12.41,1.84,6.39,6.11,13.29,13.24,19.2,10.06-6.86,16.75-14.32,18.24-20.72.26-1.1,1.42-6.67-1.2-7.48s-8.28,1.24-10.9,8h0a6.77,6.77,0,0,1-12.82-.57h0C244.51,250.32,241.73,245.12,240,243.88Z"/><path fill="#e0893b" d="M392,229.22c.64,0,9.67-.4,15.12,7.05,4.92,6.73,2.88,14.27,2.62,15.16a11.48,11.48,0,0,0-2.16-5.11c-4.35-5.68-12.68-4.59-13.2-4.51Q393.23,235.51,392,229.22Z"/><polygon fill="#e0893b" points="240.21 282.97 251.94 292.05 246.9 294.76 238.27 283.92 240.21 282.97"/><path fill="#e0893b" d="M252.55 275.74l2.22-1.57 14.83 5.42L265 283.47S257.08 280 252.55 275.74zM101.54 267.86c.23.45-7.16-14.85.39-23.45 4-4.56 10.11-5.18 12.48-5.29l-1.59 12.5c-.74-.2-5.27-1.34-8.89 1.29C99.94 255.82 98.61 262.18 101.54 267.86zM253.8 239.57a24.08 24.08 0 011.82 4.32c2.37 7.73-.06 14.31.91 14.59.62.18 2.13-2.4 3.12-5.21 2.16-6.1.43-9.16 2.35-13.29.8-1.72 2.45-4.06 6.25-6.11a21.35 21.35 0 00-5.22.55A17 17 0 00253.8 239.57z"/><path fill="#ff7769" d="M371.42 385l4.68-13.72a3 3 0 015.74 0L386.53 385a3 3 0 001.89 1.89l13.72 4.69a3 3 0 010 5.74L388.42 402a3 3 0 00-1.89 1.89l-4.69 13.73a3 3 0 01-5.74 0l-4.68-13.73a3.06 3.06 0 00-1.89-1.89l-13.73-4.68a3 3 0 010-5.74l13.73-4.69A3 3 0 00371.42 385zM113.58 148.91l4.14-12.12a2.68 2.68 0 015.07 0l4.13 12.12a2.71 2.71 0 001.67 1.67l12.12 4.14a2.67 2.67 0 010 5.06l-12.12 4.14a2.69 2.69 0 00-1.67 1.67l-4.13 12.12a2.68 2.68 0 01-5.07 0l-4.14-12.12a2.67 2.67 0 00-1.67-1.67l-12.12-4.14a2.67 2.67 0 010-5.06l12.12-4.14A2.69 2.69 0 00113.58 148.91zM179.82 74.85L184 62.73a2.67 2.67 0 015.06 0l4.14 12.12a2.69 2.69 0 001.67 1.67L207 80.66a2.67 2.67 0 010 5.06l-12.12 4.14a2.69 2.69 0 00-1.67 1.67L189 103.65a2.67 2.67 0 01-5.06 0l-4.14-12.12a2.71 2.71 0 00-1.67-1.67L166 85.72a2.67 2.67 0 010-5.06l12.12-4.14A2.71 2.71 0 00179.82 74.85zM300 436l2.22-6.49a1.43 1.43 0 012.71 0l2.22 6.49a1.41 1.41 0 00.89.89l6.49 2.22a1.43 1.43 0 010 2.71l-6.49 2.22a1.41 1.41 0 00-.89.89l-2.22 6.5a1.43 1.43 0 01-2.71 0l-2.22-6.5a1.41 1.41 0 00-.89-.89l-6.49-2.22a1.43 1.43 0 010-2.71l6.49-2.22A1.41 1.41 0 00300 436z"/></svg>